<?xml version="1.0" encoding="UTF-8" standalone="no"?>
<svg
   version="1.0"
   width="265.07977pt"
   height="422.23834pt"
   viewBox="0 0 265.07977 422.23834"
   preserveAspectRatio="xMidYMid"
   id="svg27"
   sodipodi:docname="R.svg"
   xml:space="preserve"
   inkscape:version="1.3.2 (091e20ef0f, 2023-11-25, custom)"
   xmlns:inkscape="http://www.inkscape.org/namespaces/inkscape"
   xmlns:sodipodi="http://sodipodi.sourceforge.net/DTD/sodipodi-0.dtd"
   xmlns="http://www.w3.org/2000/svg"
   xmlns:svg="http://www.w3.org/2000/svg"><defs
     id="defs27" /><sodipodi:namedview
     id="namedview27"
     pagecolor="#ffffff"
     bordercolor="#000000"
     borderopacity="0.25"
     inkscape:showpageshadow="2"
     inkscape:pageopacity="0.0"
     inkscape:pagecheckerboard="0"
     inkscape:deskcolor="#d1d1d1"
     inkscape:document-units="pt"
     inkscape:zoom="0.81445313"
     inkscape:cx="270.1199"
     inkscape:cy="289.76499"
     inkscape:window-width="1920"
     inkscape:window-height="1052"
     inkscape:window-x="1920"
     inkscape:window-y="0"
     inkscape:window-maximized="1"
     inkscape:current-layer="svg27" /><metadata
     id="metadata1">
Created by potrace 1.16, written by Peter Selinger 2001-2019
</metadata><g
     id="g27"
     transform="translate(-407.82006,-135.00696)"><path
       style="fill:#333333;fill-opacity:1"
       d="m 444.59036,556.81673 c -13.88656,-1.80095 -24.47602,-8.50774 -31.4895,-19.94376 -6.15183,-10.03101 -7.1502,-35.13008 -1.82254,-45.81849 26.52213,-53.20897 99.4031,-46.85335 123.90464,10.80516 1.10231,2.59401 2.36086,4.71639 2.79678,4.71639 3.87093,0 -0.0217,-159.48761 -3.90614,-160.04323 -12.66704,-1.81182 -28.55031,-16.71428 -28.55031,-26.7873 0,-2.46944 -2.35639,-3.30841 -4.31466,-1.5362 -32.61848,29.51931 -83.83817,-19.71086 -57.03734,-54.82185 3.5614,-4.66569 3.62987,-5.29389 0.65829,-6.03971 -13.77936,-3.4584 -15.40678,-23.39096 -2.57215,-31.50365 4.61492,-2.91707 4.4949,-2.59025 2.15697,-5.87357 -25.72802,-36.13168 15.79671,-80.48333 54.18153,-57.87011 3.54092,2.08602 5.32284,2.71095 5.58388,1.95831 6.06905,-17.49906 14.85576,-25.79749 30.2335,-28.55342 17.7102,-3.17394 37.19159,9.20912 40.7087,25.87588 0.75792,3.5916 1.96336,3.64435 7.21228,0.31558 35.59518,-22.57379 79.52022,23.04243 54.28416,56.37419 -2.00273,2.6452 -3.51477,4.90648 -3.36009,5.02505 0.15469,0.11858 2.01722,1.17183 4.13897,2.34056 13.22969,7.28737 12.12046,25.96215 -1.88485,31.73285 -3.41728,1.40804 -3.41728,1.40804 0.28899,6.31697 25.88132,34.27955 -16.28788,79.03131 -53.40776,56.67861 -6.20863,-3.73868 -7.24427,-3.60423 -8.10787,1.05256 -2.13321,11.50289 -15.41709,23.49556 -28.02235,25.29855 -4.35661,0.62314 -4.35661,0.62314 -4.58603,80.79072 -0.2337,81.66353 -0.11732,84.62455 3.01857,76.79872 14.6543,-36.57085 49.81346,-56.45417 83.90259,-47.44887 63.25772,16.71075 56.86453,107.9181 -7.016,100.09209 -14.6523,-1.79506 -27.04735,-15.5378 -26.04661,-28.87861 0.27247,-3.63237 0.27247,-3.63237 -4.66851,-4.87326 -2.71754,-0.68249 -12.82409,-3.62078 -22.459,-6.52953 -24.396,-7.36509 -22.48218,-7.5026 -24.87505,1.78735 -1.62519,6.30958 -1.97632,10.24999 -2.02131,22.68359 -0.0461,12.75248 -0.25997,15.04753 -1.40198,15.04753 -1.14279,0 -1.3466,-2.21818 -1.34133,-14.59835 0.008,-19.48939 -2.44229,-31.67452 -6.19609,-30.80897 -1.2895,0.29733 -10.42978,2.93078 -20.31174,5.8521 -9.88197,2.92132 -20.19065,5.92366 -22.90819,6.67186 -4.94098,1.36037 -4.94098,1.36037 -4.94098,6.56613 0,9.82678 -6.59045,19.90711 -16.20152,24.7808 -4.73867,2.40294 -15.23427,3.45487 -23.61995,2.36733 z m 4.17709,-2.97843 c 0.36663,-0.2266 -0.15503,-7.82027 -1.15925,-16.87484 -2.10793,-19.00623 -2.05013,-20.41479 0.97146,-23.67515 2.92465,-3.15574 4.13307,-2.60301 -17.62181,-8.06021 -22.14386,-5.55478 -20.24409,-6.27501 -20.14299,7.63645 0.11205,15.41759 4.43336,25.64743 13.94652,33.01561 6.80107,5.26761 20.83293,9.91924 24.00607,7.95814 z m 15.18095,-1.00561 c 9.18224,-2.72684 17.45128,-13.29831 17.67737,-22.59948 0.12652,-5.20494 0.18174,-5.19664 -11.0803,-1.66561 -10.98316,3.44358 -12.72432,3.66434 -17.03886,2.16028 -3.99261,-1.39183 -4.42884,5.46263 -1.33588,20.99074 0.59282,2.97628 4.3198,3.32881 11.77767,1.11407 z m 165.24677,-8.52554 c 1.77747,-15.50853 1.7888,-15.42639 -1.91523,-13.87874 -4.46306,1.86479 -6.18354,1.67682 -17.52553,-1.91466 -12.74573,-4.03598 -13.99121,-2.97477 -9.76515,8.32039 6.90658,18.45947 27.34728,23.6897 29.20591,7.47301 z m 16.67833,7.18761 c 15.74626,-5.93494 23.13812,-17.83938 23.84733,-38.40562 0.49221,-14.27358 2.17383,-13.53943 -18.92822,-8.2635 -24.165,6.04172 -21.68641,4.95136 -19.06574,8.38723 2.78728,3.65432 2.8785,7.81672 0.58822,26.8388 -0.87826,7.29439 -1.36629,13.49977 -1.08452,13.78973 0.89476,0.92076 9.73117,-0.49534 14.64293,-2.34664 z M 462.91238,527.71982 c 6.03353,-2.52097 7.02159,-10.85992 1.69992,-14.34681 -3.70552,-2.42796 -10.00023,-1.84033 -13.05971,1.21915 -7.11923,7.11923 1.60646,17.20286 11.35979,13.12766 z m 166.00496,-2.18232 c 7.52383,-7.52383 -3.39641,-17.69227 -12.94366,-12.05257 -3.72173,2.19848 -4.88885,5.55927 -3.27334,9.42575 2.66116,6.36904 11.10677,7.73705 16.217,2.62682 z m -150.79403,-2.97609 c 1.01553,-0.94757 -3.35395,-5.20506 -5.34197,-5.20506 -1.12656,0 -2.49502,5.9235 -1.69981,7.35781 0.3969,0.71589 5.70729,-0.90756 7.04178,-2.15275 z m 131.27287,0.0728 c -0.30881,-1.54405 -0.56148,-3.36323 -0.56148,-4.04262 0,-1.78889 -2.09525,-1.51647 -4.81983,0.62668 -3.2451,2.5526 -2.96986,3.94093 1.0018,5.05299 4.98917,1.39697 4.98651,1.39796 4.37951,-1.63705 z m -98.9319,-8.69445 c 8.39966,-2.52107 17.03522,-5.03482 19.19013,-5.58611 13.86873,-3.54808 -17.03073,-39.35187 -40.97894,-47.48309 -7.85197,-2.66601 -8.10018,-2.59937 -8.78828,2.3596 -0.32566,2.34696 -2.16006,14.37376 -4.07645,26.72621 -3.48434,22.459 -3.48434,22.459 -0.61169,24.7049 1.57995,1.23524 4.00998,3.3137 5.40007,4.6188 2.95338,2.77282 2.65769,2.8257 29.86516,-5.34031 z m 96.50151,-0.30251 c 0.98376,-0.32792 0.9424,-1.97621 -0.23447,-9.34444 -0.78591,-4.92045 -2.51185,-16.82939 -3.83542,-26.4643 -2.81316,-20.47836 -2.39871,-19.67744 -9.09686,-17.57965 -18.92484,5.92706 -35.84302,20.76044 -43.701,38.31581 -3.6585,8.17338 -3.71148,8.77244 -0.83073,9.39333 1.38684,0.29891 9.39398,2.59601 17.79365,5.10468 31.06827,9.27893 29.95674,9.12564 34.62731,4.77558 2.24569,-2.09157 4.62057,-3.98203 5.27752,-4.20101 z m 13.54759,-4.7949 c 5.67536,-0.90948 46.83712,-11.07286 47.49021,-11.72595 0.29554,-0.29554 -1.24688,-4.04877 -3.42761,-8.34049 -10.09078,-19.85887 -28.31349,-30.66365 -51.77352,-30.69804 -10.9533,-0.0161 -10.25846,-0.67218 -8.80911,8.31833 0.6552,4.06433 2.2523,15.24437 3.5491,24.84453 2.94484,21.8005 3.1245,22.35678 6.45863,19.99724 1.35833,-0.96128 4.28886,-2.03931 6.5123,-2.39562 z m -150.92449,2.78331 c 0,-0.18729 1.58971,-10.3949 3.5327,-22.68359 5.34057,-33.7773 6.12425,-30.4353 -7.12614,-30.38944 -24.43922,0.0846 -47.13606,15.77872 -53.39052,36.91783 -0.54796,1.85203 32.36486,11.12109 47.75698,13.44954 2.08958,0.3161 4.51516,1.11795 5.39016,1.78189 1.4843,1.12626 3.83682,1.69266 3.83682,0.92377 z m 69.17373,-179.33148 c 0,-8.74121 -0.28245,-11.68001 -1.12295,-11.68397 -3.05903,-0.0144 -18.77136,-2.78911 -22.99826,-4.06132 -15.2439,-4.58811 -2.0526,19.38416 14.15623,25.72579 9.4517,3.69794 9.96498,3.18387 9.96498,-9.9805 z m 11.42922,10.322 c 10.07032,-2.99056 18.19769,-11.36532 21.28109,-21.92886 1.79525,-6.15042 2.00303,-6.03464 -6.84373,-3.81317 -4.09761,1.02894 -10.98749,2.35293 -15.31085,2.94221 -7.86065,1.07142 -7.86065,1.07142 -7.86065,12.61396 0,13.22614 -0.30517,12.87025 8.73414,10.18586 z m -56.82979,-23.4009 c 6.85833,-3.39466 10.244,-6.46453 8.02858,-7.27971 -2.46521,-0.9071 -17.3124,-9.77737 -20.2711,-12.11072 -3.29231,-2.59644 -3.29231,-2.59644 -6.57031,-0.66237 -2.62192,1.54697 -3.4913,1.70727 -4.34375,0.80093 -0.82318,-0.87522 -0.8129,-1.22594 0.0452,-1.54088 4.64841,-1.70609 5.26996,-3.68618 2.01065,-6.4054 -2.32458,-1.9394 -12.62273,-14.49813 -13.93588,-16.99501 -0.0654,-0.1244 -2.00479,0.34136 -4.3097,1.03503 -3.91724,1.17892 -4.19074,1.15437 -4.19074,-0.37619 0,-1.08751 0.90165,-1.83546 2.68478,-2.2271 3.78124,-0.8305 3.87977,-1.39905 1.26806,-7.3171 -2.87514,-6.51495 -2.67427,-6.33393 -4.8468,-4.36782 -29.1965,26.42247 8.53891,75.21182 44.43104,57.44634 z m 123.59594,1.49923 c 22.1088,-8.37114 30.71416,-34.73508 17.68328,-54.17564 -4.67972,-6.98161 -5.2668,-7.00016 -8.67546,-0.27415 -2.83699,5.59799 -2.42814,7.63606 1.53184,7.63606 0.68789,0 1.07917,0.50533 0.86953,1.12295 -0.24292,0.71562 -1.67838,1.01915 -3.95736,0.83678 -3.34173,-0.26741 -3.74391,-0.0318 -6.13486,3.59344 -1.40727,2.13379 -5.01328,6.44128 -8.01335,9.57222 -5.37423,5.60866 -5.77423,8.23197 -1.2552,8.23197 0.39966,0 0.72665,0.6064 0.72665,1.34754 0,1.71813 -1.19874,1.70291 -4.60486,-0.0585 -2.51219,-1.2991 -2.88854,-1.28202 -4.94965,0.22459 -6.67088,4.87623 -11.23476,7.79423 -16.27002,10.40253 -6.26365,3.24461 -6.72968,4.24712 -3.14758,6.77089 10.57204,7.44852 24.33254,9.26159 36.19704,4.76929 z m -78.39077,-13.41336 c 0.29018,-11.42753 1.26271,-10.27766 -9.68656,-11.45283 -11.14979,-1.1967 -11.0329,-1.22137 -13.06314,2.75736 -1.00851,1.97639 -2.92875,5.44814 -4.26721,7.71499 -1.33847,2.26685 -2.43358,4.53013 -2.43358,5.0295 0,1.68802 22.20352,6.653 27.39999,6.12698 1.66105,-0.16815 1.81588,-0.93651 2.0505,-10.176 z m 22.87899,7.31181 c 11.17315,-2.59092 11.07823,-2.42472 6.06393,-10.61712 -1.97639,-3.22904 -3.59344,-6.21863 -3.59344,-6.64352 0,-2.38461 -2.68436,-2.91002 -9.60586,-1.88015 -3.85759,0.57398 -8.32765,1.22895 -9.93347,1.45549 -2.91967,0.4119 -2.91967,0.4119 -2.91967,10.10342 0,12.5141 -0.48612,12.32971 19.98851,7.58188 z m -52.68382,-9.04499 c 5.45196,-9.26337 6.71618,-12.80163 4.57403,-12.80163 -0.64375,0 -4.51432,-1.61705 -8.60124,-3.59344 -8.9833,-4.34422 -8.12292,-4.32304 -13.35328,-0.32873 -2.35124,1.79558 -5.58884,3.89177 -7.19466,4.65818 -4.634,2.21169 -2.42623,4.48066 12.16625,12.50347 8.7149,4.79138 9.34431,4.76917 12.4089,-0.43785 z m 74.83789,0.71794 c 12.41853,-6.82621 15.97488,-9.9807 13.4587,-11.9379 -11.09566,-8.63072 -13.17609,-9.22091 -20.432,-5.79627 -3.77902,1.78362 -7.78053,3.48881 -8.89225,3.78931 -2.84242,0.76832 -2.58475,1.94522 2.23373,10.20245 4.95076,8.48392 4.9875,8.49401 13.63182,3.74241 z m -44.83766,-19.75633 c 0,-7.95617 0.25968,-7.6996 -8.11965,-8.02232 -4.9754,-0.19162 -4.9754,-0.19162 -7.80575,6.17848 -3.3257,7.48494 -3.37165,7.43469 8.01684,8.76762 8.32353,0.9742 7.90856,1.33751 7.90856,-6.92378 z m 19.15177,5.40036 c 2.44114,-0.92812 -0.62757,-12.13691 -3.63921,-13.29259 -8.35594,-3.20647 -18.42776,9.11762 -12.38762,15.15776 0.63065,0.63065 13.3582,-0.85056 16.02683,-1.86517 z m -72.10531,-2.84354 c 7.60149,-4.87615 8.3512,-6.09828 5.06271,-8.25298 -1.14095,-0.74758 -4.57414,-3.82041 -7.6293,-6.8285 -5.38217,-5.29926 -12.64041,-5.43815 -21.06177,-0.40305 -1.4809,0.88542 13.88003,20.06283 16.07014,20.06283 0.23158,0 3.63278,-2.06023 7.55822,-4.5783 z m 122.5538,-1.84148 c 11.17699,-12.07249 11.30238,-13.09885 1.94932,-15.95518 -8.36051,-2.55321 -8.97273,-2.45399 -12.6656,2.05268 -1.77274,2.16339 -4.83177,5.0482 -6.79785,6.4107 -5.28488,3.66242 -4.98835,4.1827 6.30727,11.06671 4.61048,2.80982 5.58291,2.49962 11.20686,-3.57491 z m -88.40782,-3.14229 c 1.47287,-3.28275 2.52443,-6.12215 2.33679,-6.30978 -0.73435,-0.73436 -12.72735,-3.74053 -13.16219,-3.29924 -0.25416,0.25792 -2.38235,2.13715 -4.72932,4.17607 -5.43538,4.72197 -5.46567,4.60888 2.22056,8.2924 9.35642,4.48395 10.11211,4.32189 13.33416,-2.85945 z m 53.71899,2.82369 c 7.55981,-3.62294 7.54271,-3.47762 1.02297,-8.6975 -9.50387,-7.60905 -18.19064,-2.65052 -13.58739,7.75587 2.2561,5.10031 3.66619,5.20599 12.56442,0.94163 z m -72.31986,-9.50845 c 5.17087,-4.55157 5.16496,-4.7789 -0.19463,-7.49481 -2.40005,-1.2162 -5.58883,-3.24212 -7.08616,-4.50204 -5.66969,-4.77073 -14.16003,1.17406 -9.12598,6.38986 9.46848,9.81034 11.02659,10.34282 16.40677,5.60699 z m 86.20719,1.0576 c 6.93357,-4.823 11.19479,-9.89796 9.41551,-11.21354 -4.6659,-3.44991 -8.15045,-3.55736 -12.96936,-0.39992 -2.51502,1.64788 -5.88498,3.71012 -7.48881,4.58274 -3.37487,1.83623 -2.99823,2.71863 3.02948,7.09761 4.24118,3.08111 3.47844,3.08748 8.01318,-0.0669 z m -48.79876,-15.25028 c 0,-12.47231 0,-12.47231 -2.46537,-12.9436 -3.35856,-0.64203 -3.4343,-0.54688 -4.66016,5.8547 -0.59365,3.10015 -1.88028,8.37276 -2.85918,11.71692 -2.19182,7.48785 -1.98063,7.84429 4.64757,7.84429 5.33714,0 5.33714,0 5.33714,-12.47231 z m 13.91536,11.58887 c 0.3003,-0.48589 -0.46514,-4.08424 -1.70097,-7.99633 -1.23583,-3.91209 -2.52161,-9.18328 -2.85729,-11.71376 -0.69959,-5.27382 -0.86155,-5.45992 -4.19665,-4.82238 -6.08462,1.16315 -3.34427,25.41591 2.87177,25.41591 2.93543,0 5.58284,-0.39755 5.88314,-0.88344 z m -28.36335,-2.06559 c 1.95733,-5.14818 5.56661,-21.55801 4.88128,-22.19308 -3.16434,-2.93232 -4.66735,-1.9933 -7.85601,4.90813 -1.72986,3.74405 -4.37921,8.63583 -5.88746,10.87063 -3.52496,5.22301 -3.47853,5.51141 1.07577,6.68204 2.09991,0.53976 4.22229,1.12981 4.71639,1.31124 1.8289,0.67155 2.30809,0.42509 3.07003,-1.57896 z m 39.37748,0.16903 c 3.84635,-1.10598 4.64967,-1.99014 2.82999,-3.11477 -1.85265,-1.14499 -7.88492,-11.27568 -9.36194,-15.72259 -3.96804,-11.94664 -7.98903,-5.13513 -4.54123,7.69278 3.14056,11.68481 3.83135,13.2277 5.68372,12.69464 0.86428,-0.24872 3.28954,-0.94625 5.38946,-1.55006 z m -96.24065,-4.06837 c 9.3072,-2.90184 9.66773,-4.26849 3.37443,-12.79135 -0.47296,-0.64052 -15.70171,1.99125 -16.20146,2.79987 -0.5105,0.82601 3.99406,12.34805 4.82749,12.34805 0.24265,0 3.84244,-1.06046 7.99954,-2.35657 z m 155.96806,-3.30311 c 3.2863,-6.48175 2.94011,-7.40437 -3.05149,-8.13252 -2.6376,-0.32055 -6.28055,-0.83251 -8.09545,-1.13771 -3.23663,-0.54427 -3.34417,-0.4674 -5.61476,4.01338 -3.1183,6.15368 -3.24251,5.9268 4.64737,8.48845 8.97527,2.91405 9.00205,2.90691 12.11433,-3.2316 z m -110.651,-0.26445 c 9.5795,-13.92333 9.21059,-22.5817 -0.59441,-13.95099 -2.17582,1.91524 -6.78581,4.96925 -10.24441,6.78669 -8.10586,4.25951 -7.99771,5.05386 1.32537,9.73454 5.33663,2.67928 6.03069,2.49176 9.51345,-2.57024 z m 64.47836,2.404 c 4.80428,-2.42519 8.07737,-5.06151 7.23553,-5.82789 -0.19394,-0.17654 -2.80059,-1.5478 -5.79256,-3.04724 -2.99198,-1.49944 -7.77566,-4.6289 -10.6304,-6.95435 -11.58592,-9.43783 -11.30201,3.34426 0.34498,15.53158 3.35727,3.51303 2.52862,3.48511 8.84245,0.2979 z m -92.90953,-4.53318 c 4.69848,-2.01401 4.88549,-2.60041 2.09883,-6.58142 -1.11005,-1.58581 -2.05465,-2.98567 -2.09911,-3.11081 -0.15809,-0.44499 -8.27219,0.90398 -9.31532,1.54867 -1.00869,0.62341 1.06539,5.47413 3.75647,8.7854 1.13457,1.39604 0.68342,1.44813 5.55913,-0.64184 z m 118.94177,-1.72637 c 3.25452,-5.79065 2.862,-6.49271 -4.32638,-7.73811 -2.81837,-0.48829 -9.13736,6.55204 -7.09575,7.90577 5.92494,3.92866 9.14644,3.88137 11.42213,-0.16766 z m -103.43655,-5.47563 c 14.66179,-7.46127 16.27513,-11.80783 2.8759,-7.74807 -4.13948,1.2542 -9.24443,2.71387 -11.34435,3.24372 -4.48431,1.13147 -4.49877,1.17955 -1.52641,5.07651 2.77421,3.63718 1.59009,3.70496 9.99486,-0.57216 z m 90.92994,0.4061 c 2.6213,-3.84896 2.84369,-3.62033 -5.69772,-5.85754 -3.83718,-1.00505 -8.65153,-2.41098 -10.69854,-3.12427 -11.21021,-3.90629 -6.43762,2.82514 6.47132,9.12737 7.47954,3.65157 7.33751,3.65365 9.92494,-0.14556 z m -142.30909,-6.93602 c -0.82432,-7.23622 -0.55769,-6.96229 -6.77671,-6.96229 -4.33703,0 -5.33714,0.27473 -5.33714,1.46609 0,2.6446 3.70484,7.53076 7.05015,9.29814 5.4115,2.85899 5.7901,2.57473 5.0637,-3.80194 z m 14.44737,4.6437 c 6.78898,-1.23672 6.92173,-1.39795 5.72922,-6.95844 -1.29181,-6.02348 -17.92179,-7.62772 -17.91167,-1.72788 0.0162,9.40947 1.68411,10.59877 12.18245,8.68632 z m 165.0768,-1.05026 c 2.50242,-10.49194 2.39829,-10.64304 -7.14254,-10.36496 -8.86609,0.25841 -8.86609,0.25841 -9.66954,4.99484 -0.95963,5.65707 -1.18747,5.36106 4.9044,6.37151 8.90855,1.47765 11.36569,1.27101 11.90768,-1.00139 z m 8.93919,0.36837 c 8.26598,-5.45053 8.87056,-10.9241 1.20663,-10.9241 -5.73734,0 -5.73734,0 -6.35299,4.26721 -0.33861,2.34697 -0.8326,5.1768 -1.09775,6.28852 -0.61863,2.59372 2.58284,2.78258 6.24411,0.36837 z M 481.0637,250.42417 c 2.01482,-0.74039 2.12012,-1.92895 0.60621,-6.84304 -0.85059,-2.761 -10.2843,-1.37255 -10.2843,1.51365 0,6.88651 2.17761,8.08564 9.67809,5.32939 z m 126.37742,1.09211 c 3.18295,-5.15013 1.51138,-9.0581 -3.87447,-9.0581 -4.07817,0 -5.51227,0.32137 -5.51227,1.23525 0,0.67938 -0.24616,2.46606 -0.54703,3.9704 -0.52504,2.6252 -0.38962,2.7703 3.36885,3.60953 5.27152,1.17706 5.97158,1.20297 6.56492,0.24292 z m -110.22766,-4.65464 c 10.86762,-2.91836 10.03443,-4.40346 -2.47049,-4.40346 -9.38788,0 -9.88196,0.0928 -9.88196,1.85578 0,2.95201 1.73066,5.4683 3.42357,4.9777 0.83458,-0.24187 4.85258,-1.33537 8.92888,-2.43002 z m 97.24748,1.99736 c 0,-0.43234 0.25267,-2.04939 0.56148,-3.59344 0.56147,-2.80738 0.56147,-2.80738 -9.37977,-2.80738 -14.12357,0 -14.4839,1.27888 -1.37365,4.8754 8.95229,2.45588 10.19194,2.64141 10.19194,1.52542 z m -55.69832,-4.20794 c 0,-1.83763 -0.43661,-2.19288 -2.69508,-2.19288 -3.4696,0 -4.06329,4.14134 -0.67377,4.69998 2.79002,0.45983 3.36885,0.0291 3.36885,-2.5071 z m -8.53442,0.0407 c 0,-1.35654 -0.7001,-1.85192 -2.91967,-2.06593 -3.25854,-0.31418 -4.42193,2.89249 -1.34754,3.71425 2.79299,0.74654 4.26721,0.17709 4.26721,-1.64832 z m 16.61966,0.0123 c 0,-1.89654 -0.41924,-2.2459 -2.69508,-2.2459 -2.27585,0 -2.69508,0.34936 -2.69508,2.2459 0,1.89654 0.41923,2.2459 2.69508,2.2459 2.27584,0 2.69508,-0.34936 2.69508,-2.2459 z m 7.0932,1.42445 c 1.89297,-1.19862 0.46258,-3.67035 -2.12403,-3.67035 -1.60627,0 -2.27409,0.48366 -2.27409,1.64699 0,2.78416 1.85143,3.63591 4.39812,2.02336 z m 7.28056,-2.41892 c 0,-0.68829 -0.80852,-1.25143 -1.79672,-1.25143 -1.69124,0 -2.44277,1.74958 -1.25971,2.93264 0.87423,0.87423 3.05643,-0.3261 3.05643,-1.68121 z m -39.52784,0.0302 c 0,-0.83659 -0.61122,-1.29487 -1.49769,-1.12295 -2.25378,0.4371 -2.56324,2.53636 -0.3739,2.53636 1.10349,0 1.87159,-0.58006 1.87159,-1.41341 z m -74.27404,-6.89642 c 1.8662,-11.12417 1.88006,-10.79021 -0.42019,-10.12296 -4.73233,1.37272 -10.64998,7.69532 -10.64998,11.37876 0,3.51488 10.46907,2.32726 11.07017,-1.2558 z m 20.98771,-2.43984 c 0.86313,-5.35951 0.86313,-5.35951 -3.69411,-6.23813 -13.35879,-2.57553 -12.63194,-2.83471 -13.86089,4.94256 -1.08757,6.88256 -1.37245,6.65508 8.3344,6.65508 8.35748,0 8.35748,0 9.2206,-5.35951 z m 13.25976,4.23656 c 1.8841,-6.16396 1.60306,-6.78734 -3.58326,-7.94799 -5.66021,-1.2667 -5.80819,-1.18708 -6.6827,3.59525 -0.88599,4.8451 8.85325,8.97451 10.26596,4.35274 z m 23.4069,-0.6569 c 0,-1.30564 -17.93394,-6.18892 -18.96015,-5.16271 -4.44883,4.44883 -1.15449,6.99513 8.7311,6.74854 8.32111,-0.20757 10.22905,-0.50336 10.22905,-1.58583 z m 16.21886,0.80321 c 0.92578,-1.49794 -1.15637,-3.21568 -2.39567,-1.97639 -1.03664,1.03664 -0.38784,2.95303 0.99976,2.95303 0.43577,0 1.06394,-0.43949 1.39591,-0.97664 z m 8.73274,-0.76806 c 0.58776,-2.2476 0.0256,-2.7471 -3.0915,-2.7471 -2.45978,0 -3.5863,2.25304 -1.94645,3.89289 1.30156,1.30156 4.59376,0.5528 5.03795,-1.14579 z m 8.28773,-0.95038 c 0,-1.78225 -0.51001,-2.30458 -2.47049,-2.53016 -2.22986,-0.25657 -2.47049,-0.0101 -2.47049,2.53016 0,2.54029 0.24063,2.78674 2.47049,2.53016 1.96048,-0.22558 2.47049,-0.7479 2.47049,-2.53016 z m 8.08524,0 c 0,-2.65182 -3.68164,-3.78274 -4.59193,-1.41055 -0.89447,2.33095 0.35924,4.2575 2.5666,3.94405 1.48475,-0.21084 2.02533,-0.88705 2.02533,-2.5335 z m 8.37231,0.22459 c 0.2323,-1.63565 -0.14324,-2.02131 -1.96829,-2.02131 -2.55923,0 -3.66495,1.24176 -2.8942,3.25029 0.8122,2.11658 4.52046,1.17933 4.86249,-1.22898 z m 6.29191,0.37474 c 0.19585,-1.00983 -0.31626,-1.49769 -1.57213,-1.49769 -1.02442,0 -1.86259,0.53902 -1.86259,1.19781 0,2.75145 2.90999,3.00551 3.43472,0.29988 z m 33.99351,0.69092 c 0.85658,-2.23219 -1.25088,-5.97177 -3.07323,-5.45329 -0.86067,0.24487 -4.60529,1.09958 -8.32138,1.89935 -7.58688,1.63284 -9.47671,2.5053 -8.57767,3.95997 1.04984,1.69868 19.30706,1.32752 19.97228,-0.40603 z m 13.57339,-3.10672 c -0.55307,-5.75587 -0.5054,-5.72333 -6.54628,-4.46925 -5.06677,1.05186 -6.2152,3.81852 -3.44538,8.30019 2.17243,3.51507 10.3946,0.36258 9.99166,-3.83094 z m 20.18877,-1.7367 c -0.3184,-8.05436 -0.10485,-7.98835 -15.75958,-4.87096 -2.49471,0.49678 -2.87505,4.20732 -1.02815,10.03017 1.61884,5.1038 17.00649,0.37486 16.78773,-5.15921 z m 14.85019,4.40629 c 0.6014,-3.16497 -7.59888,-11.63344 -11.26502,-11.63344 -1.26645,0 -0.92784,10.65445 0.4082,12.8441 0.84309,1.38177 10.57032,0.29707 10.85682,-1.21066 z m -132.3796,-2.29677 c 3.68014,-1.4122 -2.16645,-7.57849 -11.59302,-12.22695 -6.45028,-3.18077 -7.86202,-2.77665 -10.91337,3.124 -1.51993,2.93923 -0.89859,3.2999 9.85344,5.71965 3.54085,0.79687 7.44856,1.99061 8.6838,2.65275 2.73227,1.46462 2.27535,1.38052 3.96915,0.73055 z m 70.59474,-3.15866 c 5.18803,-1.38554 9.73598,-2.53389 10.10655,-2.55187 1.50247,-0.0729 0.50689,-2.62148 -2.28636,-5.8528 -2.94517,-3.40706 -2.97811,-3.41858 -6.51311,-2.27821 -6.10316,1.96884 -16.5792,10.12915 -16.5792,12.91436 0,0.75508 3.07387,1.28427 4.4918,0.7733 0.74115,-0.26709 5.59229,-1.61924 10.78032,-3.00478 z m -61.54406,0.12087 c 2.16933,-3.51006 -10.31527,-21.3665 -14.09967,-20.16644 -9.19151,2.9147 -10.18068,5.84055 -3.22751,9.54655 3.06603,1.63418 7.41185,4.86607 9.65737,7.18199 3.97024,4.09469 6.54939,5.25077 7.66981,3.4379 z m 47.13754,-3.94859 c 2.78886,-2.66013 7.14262,-5.88654 9.67502,-7.1698 6.0835,-3.08274 6.30588,-3.6958 2.29305,-6.32136 -7.31391,-4.78541 -9.62729,-4.10948 -15.06978,4.40317 -8.15949,12.76231 -6.33988,18.09374 3.10171,9.08799 z M 529.082,228.53354 c -0.25877,-3.75213 -4.51396,-19.2021 -5.65363,-20.52755 -0.67254,-0.78216 -10.71819,1.73702 -10.71819,2.68784 0,0.28956 1.82284,3.45112 4.05077,7.02567 2.22792,3.57456 4.69906,8.40184 5.49143,10.7273 2.04775,6.00982 7.24268,6.07581 6.82962,0.0867 z m 28.34,-1.57213 c 1.11301,-3.08811 3.84821,-8.04032 6.07823,-11.00491 4.47923,-5.95469 4.31452,-6.29942 -3.84622,-8.04989 -3.46476,-0.74319 -3.67778,-0.34768 -7.13802,13.25314 -2.43624,9.57591 -2.30327,11.41641 0.82482,11.41641 1.70915,0 2.40019,-0.9507 4.08119,-5.61475 z m -18.85931,-8.08524 c -0.24925,-12.80163 -0.24925,-12.80163 -5.63941,-12.48744 -6.84723,0.39913 -6.55977,-0.31109 -3.78725,9.35695 1.30849,4.56283 2.64652,10.01417 2.97339,12.11409 1.80481,11.59456 6.7207,4.75115 6.45327,-8.9836 z m 9.51395,8.60916 c 0.31606,-2.30586 1.64744,-7.76712 2.95863,-12.13615 2.78231,-9.27096 3.08323,-8.55012 -3.73823,-8.95484 -5.39016,-0.3198 -5.39016,-0.3198 -5.63942,12.48183 -0.27195,13.96734 4.75964,20.71568 6.41902,8.60916 z m -61.48255,-2.59027 c 3.64755,-5.40464 3.52384,-5.99919 -1.62906,-7.82934 -5.54147,-1.96815 -4.86915,-2.14208 -7.58534,1.96235 -4.88025,7.37456 -4.47852,8.0514 5.84555,9.84845 0.33556,0.0584 1.85155,-1.73324 3.36885,-3.98146 z m 116.17668,2.77786 c 3.99385,-0.67377 4.04656,-1.00598 1.08643,-6.84751 -2.79605,-5.51774 -3.6477,-5.87991 -9.36285,-3.98165 -5.15959,1.71374 -5.31397,2.06931 -2.41278,5.55692 1.16184,1.39668 2.60138,3.46844 3.19898,4.6039 0.67589,1.28424 1.66003,1.90805 2.60396,1.65058 0.83457,-0.22765 3.03339,-0.66966 4.88626,-0.98224 z m -129.67948,-6.73864 c 1.53237,-2.94435 2.78612,-5.7405 2.78612,-6.21367 0,-0.99142 -15.84744,-4.90913 -16.99326,-4.20098 -0.99276,0.61356 -5.86394,12.07583 -5.35024,12.58953 0.34543,0.34543 12.98479,2.81927 15.73935,3.08059 0.56755,0.0538 2.28566,-2.31112 3.81803,-5.25547 z m 147.1975,3.49387 c 3.58221,-0.61784 6.5128,-1.56392 6.51241,-2.10241 -0.002,-2.30658 -5.41419,-12.20858 -6.67332,-12.20858 -3.34476,0 -15.10585,3.11943 -15.48485,4.1071 -0.92693,2.41554 5.06373,12.26185 7.16645,11.77886 1.08141,-0.2484 4.8971,-0.95714 8.47931,-1.57497 z m -167.30823,-8.58343 c 2.8132,-6.36114 2.80065,-6.55762 -0.46051,-7.20985 -1.80017,-0.36004 -2.69508,-1.07752 -2.69508,-2.16073 0,-1.40181 0.39511,-1.5084 2.91374,-0.78607 4.40622,1.26369 4.48348,1.22333 8.67355,-4.53053 2.14926,-2.9514 5.9306,-7.47598 8.40297,-10.05461 4.49521,-4.68842 4.49521,-4.68842 2.25177,-6.53709 -3.38168,-2.78661 -2.16727,-4.38062 1.63034,-2.13997 3.44336,2.03163 2.28129,2.42682 10.99743,-3.73998 2.13201,-1.50843 6.64988,-4.13931 10.03971,-5.8464 8.47481,-4.26784 8.61803,-4.76809 2.39701,-8.37229 -33.03098,-19.13677 -71.51308,15.68523 -53.42653,48.34504 5.32332,9.61259 6.2339,9.91029 9.2756,3.03248 z m 179.80794,3.03145 c 27.43785,-30.67513 -13.87982,-75.72462 -49.78165,-54.27795 -6.09041,3.63823 -5.9758,4.14523 1.77209,7.83885 3.56867,1.70127 9.10003,5.05314 12.29191,7.44859 5.80007,4.35285 5.80513,4.35456 8.74963,2.95043 3.66838,-1.74933 5.17401,-0.17978 2.07206,2.16003 -2.09893,1.58322 -2.09893,1.58322 4.41636,8.55973 3.58341,3.83708 7.10787,8.12243 7.83214,9.52301 1.11097,2.14838 1.87504,2.5465 4.88721,2.5465 2.57476,0 3.57037,0.37577 3.57037,1.34754 0,0.83847 -0.84845,1.34754 -2.2459,1.34754 -2.74974,0 -2.78746,-0.54455 0.45813,6.61344 2.99432,6.60383 3.37338,6.85383 5.97765,3.94229 z m -132.02833,-6.88239 c 5.27659,-3.24481 5.26595,-3.60731 -0.24893,-8.48043 -4.59834,-4.06325 -6.11303,-3.56029 -14.24527,4.7302 -4.43438,4.52067 -4.43438,4.52067 -0.89836,5.92737 1.94481,0.77369 4.34455,1.75343 5.33274,2.1772 1.14879,0.49265 2.44466,0.36422 3.59344,-0.35613 0.9882,-0.61965 3.89807,-2.41884 6.46638,-3.99821 z m 91.18898,2.80547 c 5.95741,-2.26257 6.00046,-2.45608 1.5574,-7.00134 -7.48544,-7.65763 -9.20512,-8.24683 -13.80642,-4.73043 -6.47544,4.94866 -6.55668,5.61991 -1.00877,8.33425 2.64193,1.29258 5.29907,2.94725 5.90475,3.67704 1.41083,1.69996 2.22224,1.66912 7.35304,-0.27952 z M 490.08504,200.91122 c 3.59262,-2.96163 3.5253,-3.09271 -4.23951,-8.25475 -8.68727,-5.77528 -11.05952,-4.72472 -22.14268,9.80607 -5.485,7.1912 11.60651,11.73469 18.91226,5.02752 2.47049,-2.26808 5.83196,-5.22856 7.46993,-6.57884 z m 119.94752,8.24214 c 9.36478,-2.37705 9.40415,-2.43208 5.48252,-7.66347 -10.34719,-13.80297 -11.83083,-14.41099 -21.2581,-8.71195 -8.14732,4.92527 -8.21353,5.14047 -2.82974,9.19792 2.25369,1.69848 5.11901,4.42725 6.36737,6.06393 2.67563,3.50794 2.77079,3.5166 12.23795,1.11357 z m -92.15681,-3.53189 c 4.55301,-1.14917 4.67232,-1.91039 1.43129,-9.13235 -2.78231,-6.19982 -3.50219,-6.27361 -13.55916,-1.38982 -6.78433,3.29455 -6.75131,2.90206 -0.7238,8.60262 4.25348,4.02277 5.16092,4.5121 6.96229,3.75443 1.13924,-0.47917 3.78946,-1.30487 5.88938,-1.83488 z m 57.35176,-2.35108 c 6.09483,-5.20697 6.18902,-4.82305 -2.14252,-8.7328 -9.36415,-4.39433 -9.34617,-4.39881 -12.26983,3.05311 -2.83997,7.23861 -2.95316,6.89603 2.8009,8.47725 6.30847,1.73357 6.3074,1.73383 11.61145,-2.79756 z m -40.6329,-0.013 c 4.16801,-0.57129 4.16801,-0.57129 4.16801,-7.58304 0,-8.46458 0.20336,-8.31455 -9.61999,-7.09731 -9.97569,1.23611 -9.92925,1.17219 -6.42045,8.8385 3.23211,7.0618 3.17542,7.03391 11.87243,5.84185 z m 23.24716,-6.05616 c 3.16116,-7.47678 3.10146,-7.55242 -6.85337,-8.68357 -9.77849,-1.11111 -9.5307,-1.2988 -9.5307,7.21913 0,8.0351 -0.0594,7.98592 9.35645,7.75227 4.41547,-0.10956 4.41547,-0.10956 7.02762,-6.28783 z m -58.15782,-2.18461 c 1.4823,-0.89016 5.42385,-2.76848 8.75901,-4.17404 3.33517,-1.40556 6.06394,-2.64768 6.06394,-2.76026 0,-2.47864 -8.52535,-16.59461 -10.02233,-16.59461 -1.65444,0 -18.08435,8.91551 -21.29024,11.55292 -3.01422,2.47972 -3.01422,2.47972 4.94098,7.96182 9.3327,6.43135 8.18679,6.03305 11.54864,4.01417 z m 92.86168,-4.46645 c 4.13461,-2.65982 7.16657,-5.13522 6.7377,-5.50088 -5.48932,-4.68022 -20.95508,-13.56158 -23.61577,-13.56158 -0.86741,0 -9.95414,14.77954 -9.95414,16.19038 0,0.41216 2.30103,1.6103 5.11341,2.66254 2.81237,1.05225 6.72956,2.87693 8.70485,4.05486 1.9753,1.17792 4.02008,1.88272 4.54396,1.5662 0.52389,-0.31651 4.33538,-2.75169 8.46999,-5.41152 z m -63.40288,-4.76521 c 10.46357,-1.26803 9.61987,-0.28988 9.61987,-11.15298 0,-11.05717 0.48106,-10.60628 -10.04605,-9.41594 -16.92466,1.91373 -21.02764,3.77863 -18.33118,8.33195 1.5059,2.54291 4.32877,7.64406 6.97685,12.60775 0.49707,0.93173 1.44512,1.42337 2.19203,1.13676 0.72388,-0.27778 5.03869,-0.95617 9.58848,-1.50754 z m 35.97389,-3.29231 c 7.93342,-13.10646 7.8664,-13.39512 -3.66189,-15.77199 -17.96332,-3.70363 -19.51999,-3.07252 -19.80087,8.02772 -0.253,9.99834 -0.253,9.99834 6.28852,10.6172 3.59783,0.34037 7.95644,0.95407 9.68578,1.36379 1.72934,0.40971 3.41819,0.78631 3.75298,0.83689 0.3348,0.0506 2.01577,-2.23255 3.73548,-5.07361 z m -36.23598,-20.19994 c 9.43278,-1.13612 9.43278,-1.13612 9.6851,-12.71017 0.25233,-11.57405 0.25233,-11.57405 -3.74575,-11.1234 -11.44452,1.28996 -23.43184,11.31419 -26.74204,22.36265 -1.6984,5.66875 -0.89627,6.27513 5.69389,4.30441 3.12181,-0.93355 9.92077,-2.20862 15.1088,-2.83349 z m 44.01964,3.06654 c 0,-11.81826 -13.57613,-25.23327 -27.17539,-26.85289 -4.26721,-0.50821 -4.26721,-0.50821 -4.26721,11.2956 0,11.80381 0,11.80381 3.05499,11.80381 4.2576,0 23.72467,3.40066 25.54353,4.46215 2.19745,1.28243 2.84408,1.12131 2.84408,-0.70867 z"
       id="path27"
       sodipodi:nodetypes="ssssssssssssscssssssssssssssssssssscssssssssssssssssssssssssssssssssssssssssssssssssssssssssssssssssssssssssssssssssssssssssssssssssssssssssssssssssssssssssssssssssssssssssssssssssssssssssssssssssssssssssssssssssssssssssssssssssssssssssssssssssssssssssssssssssssssssssssssssssssssssssssssssssssssssssssssssssssssssssssssssssssssssssssssssssssssssssssssssssssssssssssssssssssssssssssssssssssssssssssssssssssssssssssssssssssssssssssssssssssssssssssssssssssssssssssssssssssssssssssssssscssssssssssssssssssssssssssssssssssssssssssssssssssssssssssssssssssssssssssssssssssssssssssssssssssssssssssssssssssss" /></g></svg>
